<svg width="18" height="18" viewBox="0 0 18 18" fill="none" xmlns="http://www.w3.org/2000/svg">
<g clip-path="url(#clip0_30284_655)">
<path d="M7.5 16.5V5.25C7.5 5.05109 7.42098 4.86032 7.28033 4.71967C7.13968 4.57902 6.94891 4.5 6.75 4.5H3C2.60218 4.5 2.22064 4.65804 1.93934 4.93934C1.65804 5.22064 1.5 5.60218 1.5 6V15C1.5 15.3978 1.65804 15.7794 1.93934 16.0607C2.22064 16.342 2.60218 16.5 3 16.5H12C12.3978 16.5 12.7794 16.342 13.0607 16.0607C13.342 15.7794 13.5 15.3978 13.5 15V11.25C13.5 11.0511 13.421 10.8603 13.2803 10.7197C13.1397 10.579 12.9489 10.5 12.75 10.5H1.5" stroke="black" stroke-width="1.5" stroke-linecap="round" stroke-linejoin="round"/>
<path d="M15.75 1.5H11.25C10.8358 1.5 10.5 1.83579 10.5 2.25V6.75C10.5 7.16421 10.8358 7.5 11.25 7.5H15.75C16.1642 7.5 16.5 7.16421 16.5 6.75V2.25C16.5 1.83579 16.1642 1.5 15.75 1.5Z" stroke="black" stroke-width="1.5" stroke-linecap="round" stroke-linejoin="round"/>
</g>
<defs>
<clipPath id="clip0_30284_655">
<rect width="18" height="18" fill="white"/>
</clipPath>
</defs>
</svg>
